G04 #@! TF.GenerationSoftware,KiCad,Pcbnew,5.0-dev-unknown-bc6763e~61~ubuntu16.04.1*
G04 #@! TF.CreationDate,2018-04-03T01:47:12-04:00*
G04 #@! TF.ProjectId,SB-4S5A,53422D345335412E6B696361645F7063,rev?*
G04 #@! TF.SameCoordinates,Original*
G04 #@! TF.FileFunction,Copper,L3,Inr,Mixed*
G04 #@! TF.FilePolarity,Positive*
%FSLAX46Y46*%
G04 Gerber Fmt 4.6, Leading zero omitted, Abs format (unit mm)*
G04 Created by KiCad (PCBNEW 5.0-dev-unknown-bc6763e~61~ubuntu16.04.1) date Tue Apr  3 01:47:12 2018*
%MOMM*%
%LPD*%
G01*
G04 APERTURE LIST*
%ADD10C,6.400000*%
%ADD11C,2.000000*%
%ADD12R,2.000000X2.000000*%
%ADD13C,0.800000*%
%ADD14C,0.200000*%
G04 APERTURE END LIST*
D10*
X75000000Y-65000000D03*
X120000000Y-65000000D03*
X165000000Y-65000000D03*
D11*
X97700000Y-75000000D03*
X95160000Y-75000000D03*
X92620000Y-75000000D03*
X90080000Y-75000000D03*
X87540000Y-75000000D03*
D12*
X85000000Y-75000000D03*
D13*
X90199990Y-95000000D03*
X102067992Y-88750000D03*
X85400000Y-81250000D03*
X100390104Y-84429149D03*
X153000000Y-85000000D03*
X145000000Y-97000000D03*
X95000000Y-97000000D03*
X94500000Y-86500000D03*
X98000000Y-91750000D03*
X92800000Y-90800000D03*
X93000000Y-98600000D03*
X143200000Y-98600000D03*
X92800000Y-92000000D03*
X93800000Y-92200000D03*
X143250000Y-97500000D03*
X94750000Y-92750000D03*
X153000000Y-98000000D03*
X153000000Y-97000000D03*
X153000000Y-96000000D03*
X153000000Y-95000000D03*
X153000000Y-94000000D03*
X153000000Y-93000000D03*
X153000000Y-92000000D03*
X153000000Y-91000000D03*
X153000000Y-90000000D03*
X153000000Y-89000000D03*
X153000000Y-88000000D03*
X153000000Y-87000000D03*
X153000000Y-86000000D03*
X153000000Y-84000000D03*
X153000000Y-83000000D03*
X153000000Y-82000000D03*
X154000000Y-81000000D03*
X155000000Y-81000000D03*
X156000000Y-81000000D03*
X157000000Y-81000000D03*
X158000000Y-81000000D03*
X159000000Y-81000000D03*
X160000000Y-81000000D03*
X161000000Y-81000000D03*
X162000000Y-81000000D03*
X163000000Y-82000000D03*
X163000000Y-83000000D03*
X163000000Y-84000000D03*
X163000000Y-85000000D03*
X163000000Y-86000000D03*
X163000000Y-87000000D03*
X163000000Y-88000000D03*
X163000000Y-89000000D03*
X163000000Y-90000000D03*
X163000000Y-91000000D03*
X163000000Y-92000000D03*
X163000000Y-93000000D03*
X163000000Y-94000000D03*
X163000000Y-95000000D03*
X163000000Y-96000000D03*
X163000000Y-97000000D03*
X163000000Y-98000000D03*
X162000000Y-99000000D03*
X161000000Y-99000000D03*
X160000000Y-99000000D03*
X159000000Y-99000000D03*
X158000000Y-99000000D03*
X157000000Y-99000000D03*
X156000000Y-99000000D03*
X155000000Y-99000000D03*
X154000000Y-99000000D03*
X96200000Y-84550000D03*
X88250000Y-94000000D03*
X88250000Y-93000000D03*
X88250000Y-92000000D03*
X88250000Y-91000000D03*
X88250000Y-90000000D03*
X86750000Y-90000000D03*
X86750000Y-91000000D03*
X86750000Y-92000000D03*
X86750000Y-93000000D03*
X86750000Y-94000000D03*
X86750000Y-95000000D03*
X87500000Y-89250000D03*
X90450000Y-89000000D03*
X89500000Y-89000000D03*
X91100000Y-89700000D03*
X91750000Y-90400000D03*
X102000000Y-95600000D03*
X76200000Y-84400000D03*
X99800000Y-95000000D03*
X77400000Y-82600000D03*
X100400000Y-97000000D03*
X78200000Y-71800000D03*
X77200000Y-74000000D03*
X98600000Y-97000000D03*
D14*
X109260001Y-99260001D02*
X142539999Y-99260001D01*
X109309130Y-98800000D02*
X141400000Y-98800000D01*
X92800000Y-92000000D02*
X92800000Y-93600000D01*
X92800000Y-93600000D02*
X93139968Y-93939968D01*
X143200000Y-98600000D02*
X142539999Y-99260001D01*
X109260001Y-99260001D02*
X103939968Y-93939968D01*
X103939968Y-93939968D02*
X93139968Y-93939968D01*
X93800000Y-92200000D02*
X93800000Y-93200000D01*
X93800000Y-93200000D02*
X94000000Y-93400000D01*
X94000000Y-93400000D02*
X103909130Y-93400000D01*
X103909130Y-93400000D02*
X109309130Y-98800000D01*
X141384315Y-98800000D02*
X142684315Y-97500000D01*
X142684315Y-97500000D02*
X143250000Y-97500000D01*
X92620000Y-75000000D02*
X90450000Y-77170000D01*
X90450000Y-77170000D02*
X90450000Y-89000000D01*
X90080000Y-75000000D02*
X90080000Y-88420000D01*
X90080000Y-88420000D02*
X89500000Y-89000000D01*
X90800000Y-88400000D02*
X91100000Y-88700000D01*
X91100000Y-88700000D02*
X91100000Y-89700000D01*
X90800000Y-77350000D02*
X90800000Y-88400000D01*
X91200000Y-76950000D02*
X90800000Y-77350000D01*
X93210000Y-76950000D02*
X91200000Y-76950000D01*
X95160000Y-75000000D02*
X93210000Y-76950000D01*
X91150000Y-88250000D02*
X91750000Y-88850000D01*
X91750000Y-88850000D02*
X91750000Y-90400000D01*
X91150000Y-77500000D02*
X91150000Y-88250000D01*
X91350000Y-77300000D02*
X91150000Y-77500000D01*
X95400000Y-77300000D02*
X91350000Y-77300000D01*
X97700000Y-75000000D02*
X95400000Y-77300000D01*
X77339999Y-96339999D02*
X101260001Y-96339999D01*
X101260001Y-96339999D02*
X102000000Y-95600000D01*
X76200000Y-95200000D02*
X77339999Y-96339999D01*
X76200000Y-84400000D02*
X76200000Y-95200000D01*
X77400000Y-82600000D02*
X76834315Y-82600000D01*
X76834315Y-82600000D02*
X76516801Y-82917514D01*
X76860001Y-84716801D02*
X76560010Y-85016792D01*
X76516801Y-82917514D02*
X76516801Y-83739999D01*
X76516801Y-83739999D02*
X76860001Y-84083199D01*
X76860001Y-84083199D02*
X76860001Y-84716801D01*
X76560010Y-85016792D02*
X76560010Y-94939999D01*
X76560010Y-94939999D02*
X77600000Y-95979989D01*
X77600000Y-95979989D02*
X98820011Y-95979989D01*
X98820011Y-95979989D02*
X99800000Y-95000000D01*
X99379989Y-98020011D02*
X100400000Y-97000000D01*
X94310880Y-98020011D02*
X99379989Y-98020011D01*
X77041757Y-97060019D02*
X93350889Y-97060019D01*
X93350889Y-97060019D02*
X94310880Y-98020011D01*
X75479981Y-95498242D02*
X77041757Y-97060019D01*
X72000000Y-92000000D02*
X72000000Y-92018261D01*
X72000000Y-92018261D02*
X75479981Y-95498242D01*
X72000000Y-74400000D02*
X72000000Y-92000000D01*
X74600000Y-71800000D02*
X72000000Y-74400000D01*
X78200000Y-71800000D02*
X74600000Y-71800000D01*
X74000000Y-77200000D02*
X77200000Y-74000000D01*
X75839990Y-95349121D02*
X74000000Y-93509131D01*
X74000000Y-93509131D02*
X74000000Y-77200000D01*
X93500009Y-96700009D02*
X77190878Y-96700009D01*
X77190878Y-96700009D02*
X75839990Y-95349121D01*
X98600000Y-97000000D02*
X97939999Y-97660001D01*
X97939999Y-97660001D02*
X94460001Y-97660001D01*
X94460001Y-97660001D02*
X93500009Y-96700009D01*
M02*
