G04 #@! TF.GenerationSoftware,KiCad,Pcbnew,5.0-dev-unknown-bc6763e~61~ubuntu16.04.1*
G04 #@! TF.CreationDate,2018-04-03T01:47:12-04:00*
G04 #@! TF.ProjectId,SB-4S5A,53422D345335412E6B696361645F7063,rev?*
G04 #@! TF.SameCoordinates,Original*
G04 #@! TF.FileFunction,Soldermask,Top*
G04 #@! TF.FilePolarity,Negative*
%FSLAX46Y46*%
G04 Gerber Fmt 4.6, Leading zero omitted, Abs format (unit mm)*
G04 Created by KiCad (PCBNEW 5.0-dev-unknown-bc6763e~61~ubuntu16.04.1) date Tue Apr  3 01:47:12 2018*
%MOMM*%
%LPD*%
G01*
G04 APERTURE LIST*
%ADD10C,6.400000*%
%ADD11R,0.400000X0.600000*%
%ADD12C,0.100000*%
%ADD13C,8.000000*%
%ADD14R,0.600000X0.500000*%
%ADD15R,0.500000X0.600000*%
%ADD16R,0.600000X0.450000*%
%ADD17R,1.230000X0.950000*%
%ADD18R,0.500000X0.630000*%
%ADD19R,0.800000X0.900000*%
%ADD20R,0.600000X0.400000*%
%ADD21R,1.700000X0.900000*%
%ADD22O,0.200000X0.600000*%
%ADD23O,0.600000X0.200000*%
%ADD24R,1.400000X1.400000*%
%ADD25C,2.000000*%
%ADD26R,2.000000X2.000000*%
%ADD27C,0.800000*%
G04 APERTURE END LIST*
D10*
X75000000Y-65000000D03*
X120000000Y-65000000D03*
X165000000Y-65000000D03*
D11*
X88550000Y-95000000D03*
X89450000Y-95000000D03*
D12*
G36*
X160196034Y-82009631D02*
X160390181Y-82038429D01*
X160580569Y-82086119D01*
X160765367Y-82152241D01*
X160942793Y-82236157D01*
X161111140Y-82337061D01*
X161268787Y-82453979D01*
X161414214Y-82585786D01*
X161546021Y-82731213D01*
X161662939Y-82888860D01*
X161763843Y-83057207D01*
X161847759Y-83234633D01*
X161913881Y-83419431D01*
X161961571Y-83609819D01*
X161990369Y-83803966D01*
X162000000Y-84000000D01*
X162000000Y-96000000D01*
X161990369Y-96196034D01*
X161961571Y-96390181D01*
X161913881Y-96580569D01*
X161847759Y-96765367D01*
X161763843Y-96942793D01*
X161662939Y-97111140D01*
X161546021Y-97268787D01*
X161414214Y-97414214D01*
X161268787Y-97546021D01*
X161111140Y-97662939D01*
X160942793Y-97763843D01*
X160765367Y-97847759D01*
X160580569Y-97913881D01*
X160390181Y-97961571D01*
X160196034Y-97990369D01*
X160000000Y-98000000D01*
X156000000Y-98000000D01*
X155803966Y-97990369D01*
X155609819Y-97961571D01*
X155419431Y-97913881D01*
X155234633Y-97847759D01*
X155057207Y-97763843D01*
X154888860Y-97662939D01*
X154731213Y-97546021D01*
X154585786Y-97414214D01*
X154453979Y-97268787D01*
X154337061Y-97111140D01*
X154236157Y-96942793D01*
X154152241Y-96765367D01*
X154086119Y-96580569D01*
X154038429Y-96390181D01*
X154009631Y-96196034D01*
X154000000Y-96000000D01*
X154000000Y-84000000D01*
X154009631Y-83803966D01*
X154038429Y-83609819D01*
X154086119Y-83419431D01*
X154152241Y-83234633D01*
X154236157Y-83057207D01*
X154337061Y-82888860D01*
X154453979Y-82731213D01*
X154585786Y-82585786D01*
X154731213Y-82453979D01*
X154888860Y-82337061D01*
X155057207Y-82236157D01*
X155234633Y-82152241D01*
X155419431Y-82086119D01*
X155609819Y-82038429D01*
X155803966Y-82009631D01*
X156000000Y-82000000D01*
X160000000Y-82000000D01*
X160196034Y-82009631D01*
X160196034Y-82009631D01*
G37*
D13*
X158000000Y-90000000D03*
D12*
G36*
X134196034Y-82009631D02*
X134390181Y-82038429D01*
X134580569Y-82086119D01*
X134765367Y-82152241D01*
X134942793Y-82236157D01*
X135111140Y-82337061D01*
X135268787Y-82453979D01*
X135414214Y-82585786D01*
X135546021Y-82731213D01*
X135662939Y-82888860D01*
X135763843Y-83057207D01*
X135847759Y-83234633D01*
X135913881Y-83419431D01*
X135961571Y-83609819D01*
X135990369Y-83803966D01*
X136000000Y-84000000D01*
X136000000Y-96000000D01*
X135990369Y-96196034D01*
X135961571Y-96390181D01*
X135913881Y-96580569D01*
X135847759Y-96765367D01*
X135763843Y-96942793D01*
X135662939Y-97111140D01*
X135546021Y-97268787D01*
X135414214Y-97414214D01*
X135268787Y-97546021D01*
X135111140Y-97662939D01*
X134942793Y-97763843D01*
X134765367Y-97847759D01*
X134580569Y-97913881D01*
X134390181Y-97961571D01*
X134196034Y-97990369D01*
X134000000Y-98000000D01*
X130000000Y-98000000D01*
X129803966Y-97990369D01*
X129609819Y-97961571D01*
X129419431Y-97913881D01*
X129234633Y-97847759D01*
X129057207Y-97763843D01*
X128888860Y-97662939D01*
X128731213Y-97546021D01*
X128585786Y-97414214D01*
X128453979Y-97268787D01*
X128337061Y-97111140D01*
X128236157Y-96942793D01*
X128152241Y-96765367D01*
X128086119Y-96580569D01*
X128038429Y-96390181D01*
X128009631Y-96196034D01*
X128000000Y-96000000D01*
X128000000Y-84000000D01*
X128009631Y-83803966D01*
X128038429Y-83609819D01*
X128086119Y-83419431D01*
X128152241Y-83234633D01*
X128236157Y-83057207D01*
X128337061Y-82888860D01*
X128453979Y-82731213D01*
X128585786Y-82585786D01*
X128731213Y-82453979D01*
X128888860Y-82337061D01*
X129057207Y-82236157D01*
X129234633Y-82152241D01*
X129419431Y-82086119D01*
X129609819Y-82038429D01*
X129803966Y-82009631D01*
X130000000Y-82000000D01*
X134000000Y-82000000D01*
X134196034Y-82009631D01*
X134196034Y-82009631D01*
G37*
D13*
X132000000Y-90000000D03*
D12*
G36*
X110196034Y-82009631D02*
X110390181Y-82038429D01*
X110580569Y-82086119D01*
X110765367Y-82152241D01*
X110942793Y-82236157D01*
X111111140Y-82337061D01*
X111268787Y-82453979D01*
X111414214Y-82585786D01*
X111546021Y-82731213D01*
X111662939Y-82888860D01*
X111763843Y-83057207D01*
X111847759Y-83234633D01*
X111913881Y-83419431D01*
X111961571Y-83609819D01*
X111990369Y-83803966D01*
X112000000Y-84000000D01*
X112000000Y-96000000D01*
X111990369Y-96196034D01*
X111961571Y-96390181D01*
X111913881Y-96580569D01*
X111847759Y-96765367D01*
X111763843Y-96942793D01*
X111662939Y-97111140D01*
X111546021Y-97268787D01*
X111414214Y-97414214D01*
X111268787Y-97546021D01*
X111111140Y-97662939D01*
X110942793Y-97763843D01*
X110765367Y-97847759D01*
X110580569Y-97913881D01*
X110390181Y-97961571D01*
X110196034Y-97990369D01*
X110000000Y-98000000D01*
X106000000Y-98000000D01*
X105803966Y-97990369D01*
X105609819Y-97961571D01*
X105419431Y-97913881D01*
X105234633Y-97847759D01*
X105057207Y-97763843D01*
X104888860Y-97662939D01*
X104731213Y-97546021D01*
X104585786Y-97414214D01*
X104453979Y-97268787D01*
X104337061Y-97111140D01*
X104236157Y-96942793D01*
X104152241Y-96765367D01*
X104086119Y-96580569D01*
X104038429Y-96390181D01*
X104009631Y-96196034D01*
X104000000Y-96000000D01*
X104000000Y-84000000D01*
X104009631Y-83803966D01*
X104038429Y-83609819D01*
X104086119Y-83419431D01*
X104152241Y-83234633D01*
X104236157Y-83057207D01*
X104337061Y-82888860D01*
X104453979Y-82731213D01*
X104585786Y-82585786D01*
X104731213Y-82453979D01*
X104888860Y-82337061D01*
X105057207Y-82236157D01*
X105234633Y-82152241D01*
X105419431Y-82086119D01*
X105609819Y-82038429D01*
X105803966Y-82009631D01*
X106000000Y-82000000D01*
X110000000Y-82000000D01*
X110196034Y-82009631D01*
X110196034Y-82009631D01*
G37*
D13*
X108000000Y-90000000D03*
D12*
G36*
X84196034Y-82009631D02*
X84390181Y-82038429D01*
X84580569Y-82086119D01*
X84765367Y-82152241D01*
X84942793Y-82236157D01*
X85111140Y-82337061D01*
X85268787Y-82453979D01*
X85414214Y-82585786D01*
X85546021Y-82731213D01*
X85662939Y-82888860D01*
X85763843Y-83057207D01*
X85847759Y-83234633D01*
X85913881Y-83419431D01*
X85961571Y-83609819D01*
X85990369Y-83803966D01*
X86000000Y-84000000D01*
X86000000Y-96000000D01*
X85990369Y-96196034D01*
X85961571Y-96390181D01*
X85913881Y-96580569D01*
X85847759Y-96765367D01*
X85763843Y-96942793D01*
X85662939Y-97111140D01*
X85546021Y-97268787D01*
X85414214Y-97414214D01*
X85268787Y-97546021D01*
X85111140Y-97662939D01*
X84942793Y-97763843D01*
X84765367Y-97847759D01*
X84580569Y-97913881D01*
X84390181Y-97961571D01*
X84196034Y-97990369D01*
X84000000Y-98000000D01*
X80000000Y-98000000D01*
X79803966Y-97990369D01*
X79609819Y-97961571D01*
X79419431Y-97913881D01*
X79234633Y-97847759D01*
X79057207Y-97763843D01*
X78888860Y-97662939D01*
X78731213Y-97546021D01*
X78585786Y-97414214D01*
X78453979Y-97268787D01*
X78337061Y-97111140D01*
X78236157Y-96942793D01*
X78152241Y-96765367D01*
X78086119Y-96580569D01*
X78038429Y-96390181D01*
X78009631Y-96196034D01*
X78000000Y-96000000D01*
X78000000Y-84000000D01*
X78009631Y-83803966D01*
X78038429Y-83609819D01*
X78086119Y-83419431D01*
X78152241Y-83234633D01*
X78236157Y-83057207D01*
X78337061Y-82888860D01*
X78453979Y-82731213D01*
X78585786Y-82585786D01*
X78731213Y-82453979D01*
X78888860Y-82337061D01*
X79057207Y-82236157D01*
X79234633Y-82152241D01*
X79419431Y-82086119D01*
X79609819Y-82038429D01*
X79803966Y-82009631D01*
X80000000Y-82000000D01*
X84000000Y-82000000D01*
X84196034Y-82009631D01*
X84196034Y-82009631D01*
G37*
D13*
X82000000Y-90000000D03*
D14*
X101775000Y-87500000D03*
X100675000Y-87500000D03*
X98600000Y-87500000D03*
X99700000Y-87500000D03*
X96525000Y-87500000D03*
X97625000Y-87500000D03*
X95550000Y-87500000D03*
X94450000Y-87500000D03*
D15*
X91225000Y-87550000D03*
X91225000Y-86450000D03*
D14*
X101200000Y-89750000D03*
X102300000Y-89750000D03*
D16*
X101200000Y-85500000D03*
X103300000Y-85500000D03*
D17*
X73170000Y-85090000D03*
X74390000Y-85090000D03*
X73170000Y-84140000D03*
X74390000Y-84140000D03*
D18*
X72810000Y-83560000D03*
X73450000Y-83560000D03*
X74110000Y-83560000D03*
X74750000Y-83560000D03*
X74750000Y-86440000D03*
X74110000Y-86440000D03*
X73450000Y-86440000D03*
X72810000Y-86440000D03*
X74690000Y-78580000D03*
X74050000Y-78580000D03*
X73390000Y-78580000D03*
X72750000Y-78580000D03*
X72750000Y-81460000D03*
X73390000Y-81460000D03*
X74050000Y-81460000D03*
X74690000Y-81460000D03*
D17*
X73110000Y-80880000D03*
X74330000Y-80880000D03*
X73110000Y-79930000D03*
X74330000Y-79930000D03*
D19*
X72750000Y-73500000D03*
X73700000Y-75500000D03*
X71800000Y-75500000D03*
D20*
X100000000Y-85550000D03*
X100000000Y-86450000D03*
X98750000Y-86450000D03*
X98750000Y-85550000D03*
X97500000Y-85550000D03*
X97500000Y-86450000D03*
X96250000Y-86450000D03*
X96250000Y-85550000D03*
D11*
X89275000Y-87625000D03*
X90175000Y-87625000D03*
D21*
X87500000Y-88450000D03*
X87500000Y-85550000D03*
D11*
X90175000Y-86375000D03*
X89275000Y-86375000D03*
X78200000Y-86000000D03*
X77300000Y-86000000D03*
D20*
X77250000Y-83800000D03*
X77250000Y-84700000D03*
D11*
X75300000Y-82500000D03*
X76200000Y-82500000D03*
X72550000Y-77250000D03*
X73450000Y-77250000D03*
X76200000Y-73500000D03*
X75300000Y-73500000D03*
X76200000Y-72250000D03*
X75300000Y-72250000D03*
X76200000Y-74750000D03*
X75300000Y-74750000D03*
X92550000Y-96000000D03*
X93450000Y-96000000D03*
X93450000Y-97250000D03*
X92550000Y-97250000D03*
X94550000Y-98000000D03*
X95450000Y-98000000D03*
X145450000Y-98000000D03*
X144550000Y-98000000D03*
D22*
X99400000Y-89850000D03*
X99000000Y-89850000D03*
X98600000Y-89850000D03*
X98200000Y-89850000D03*
X97800000Y-89850000D03*
X97400000Y-89850000D03*
X97000000Y-89850000D03*
X96600000Y-89850000D03*
D23*
X96100000Y-90350000D03*
X96100000Y-90750000D03*
X96100000Y-91150000D03*
X96100000Y-91550000D03*
X96100000Y-91950000D03*
X96100000Y-92350000D03*
X96100000Y-92750000D03*
X96100000Y-93150000D03*
D22*
X96600000Y-93650000D03*
X97000000Y-93650000D03*
X97400000Y-93650000D03*
X97800000Y-93650000D03*
X98200000Y-93650000D03*
X98600000Y-93650000D03*
X99000000Y-93650000D03*
X99400000Y-93650000D03*
D23*
X99900000Y-93150000D03*
X99900000Y-92750000D03*
X99900000Y-92350000D03*
X99900000Y-91950000D03*
X99900000Y-91550000D03*
X99900000Y-91150000D03*
X99900000Y-90750000D03*
X99900000Y-90350000D03*
D24*
X98000000Y-91750000D03*
D11*
X92550000Y-93500000D03*
X93450000Y-93500000D03*
X93450000Y-94750000D03*
X92550000Y-94750000D03*
D25*
X97700000Y-75000000D03*
X95160000Y-75000000D03*
X92620000Y-75000000D03*
X90080000Y-75000000D03*
X87540000Y-75000000D03*
D26*
X85000000Y-75000000D03*
D27*
X90199990Y-95000000D03*
X102067992Y-88750000D03*
X85400000Y-81250000D03*
X100390104Y-84429149D03*
X153000000Y-85000000D03*
X145000000Y-97000000D03*
X95000000Y-97000000D03*
X94500000Y-86500000D03*
X98000000Y-91750000D03*
X92800000Y-90800000D03*
X93000000Y-98600000D03*
X143200000Y-98600000D03*
X92800000Y-92000000D03*
X93800000Y-92200000D03*
X143250000Y-97500000D03*
X94750000Y-92750000D03*
X153000000Y-98000000D03*
X153000000Y-97000000D03*
X153000000Y-96000000D03*
X153000000Y-95000000D03*
X153000000Y-94000000D03*
X153000000Y-93000000D03*
X153000000Y-92000000D03*
X153000000Y-91000000D03*
X153000000Y-90000000D03*
X153000000Y-89000000D03*
X153000000Y-88000000D03*
X153000000Y-87000000D03*
X153000000Y-86000000D03*
X153000000Y-84000000D03*
X153000000Y-83000000D03*
X153000000Y-82000000D03*
X154000000Y-81000000D03*
X155000000Y-81000000D03*
X156000000Y-81000000D03*
X157000000Y-81000000D03*
X158000000Y-81000000D03*
X159000000Y-81000000D03*
X160000000Y-81000000D03*
X161000000Y-81000000D03*
X162000000Y-81000000D03*
X163000000Y-82000000D03*
X163000000Y-83000000D03*
X163000000Y-84000000D03*
X163000000Y-85000000D03*
X163000000Y-86000000D03*
X163000000Y-87000000D03*
X163000000Y-88000000D03*
X163000000Y-89000000D03*
X163000000Y-90000000D03*
X163000000Y-91000000D03*
X163000000Y-92000000D03*
X163000000Y-93000000D03*
X163000000Y-94000000D03*
X163000000Y-95000000D03*
X163000000Y-96000000D03*
X163000000Y-97000000D03*
X163000000Y-98000000D03*
X162000000Y-99000000D03*
X161000000Y-99000000D03*
X160000000Y-99000000D03*
X159000000Y-99000000D03*
X158000000Y-99000000D03*
X157000000Y-99000000D03*
X156000000Y-99000000D03*
X155000000Y-99000000D03*
X154000000Y-99000000D03*
X96200000Y-84550000D03*
X88250000Y-94000000D03*
X88250000Y-93000000D03*
X88250000Y-92000000D03*
X88250000Y-91000000D03*
X88250000Y-90000000D03*
X86750000Y-90000000D03*
X86750000Y-91000000D03*
X86750000Y-92000000D03*
X86750000Y-93000000D03*
X86750000Y-94000000D03*
X86750000Y-95000000D03*
X87500000Y-89250000D03*
X90450000Y-89000000D03*
X89500000Y-89000000D03*
X91100000Y-89700000D03*
X91750000Y-90400000D03*
X102000000Y-95600000D03*
X76200000Y-84400000D03*
X99800000Y-95000000D03*
X77400000Y-82600000D03*
X100400000Y-97000000D03*
X78200000Y-71800000D03*
X77200000Y-74000000D03*
X98600000Y-97000000D03*
M02*
