M48
;DRILL file {KiCad 5.0-dev-unknown-bc6763e~61~ubuntu16.04.1} date Tue Apr  3 01:48:00 2018
;FORMAT={3:3/ absolute / metric / suppress leading zeros}
FMAT,2
METRIC,TZ
T1C0.400
T2C0.950
T3C3.200
%
G90
G05
M71
T1
X76200Y-84400
X77200Y-74000
X77400Y-82600
X78200Y-71800
X85400Y-81250
X86750Y-90000
X86750Y-91000
X86750Y-92000
X86750Y-93000
X86750Y-94000
X86750Y-95000
X87500Y-89250
X88250Y-90000
X88250Y-91000
X88250Y-92000
X88250Y-93000
X88250Y-94000
X89500Y-89000
X90200Y-95000
X90450Y-89000
X91100Y-89700
X91750Y-90400
X92800Y-90800
X92800Y-92000
X93000Y-98600
X93800Y-92200
X94500Y-86500
X94750Y-92750
X95000Y-97000
X96200Y-84550
X98000Y-91750
X98600Y-97000
X99800Y-95000
X100390Y-84429
X100400Y-97000
X102000Y-95600
X102068Y-88750
X143200Y-98600
X143250Y-97500
X145000Y-97000
X153000Y-82000
X153000Y-83000
X153000Y-84000
X153000Y-85000
X153000Y-86000
X153000Y-87000
X153000Y-88000
X153000Y-89000
X153000Y-90000
X153000Y-91000
X153000Y-92000
X153000Y-93000
X153000Y-94000
X153000Y-95000
X153000Y-96000
X153000Y-97000
X153000Y-98000
X154000Y-81000
X154000Y-99000
X155000Y-81000
X155000Y-99000
X156000Y-81000
X156000Y-99000
X157000Y-81000
X157000Y-99000
X158000Y-81000
X158000Y-99000
X159000Y-81000
X159000Y-99000
X160000Y-81000
X160000Y-99000
X161000Y-81000
X161000Y-99000
X162000Y-81000
X162000Y-99000
X163000Y-82000
X163000Y-83000
X163000Y-84000
X163000Y-85000
X163000Y-86000
X163000Y-87000
X163000Y-88000
X163000Y-89000
X163000Y-90000
X163000Y-91000
X163000Y-92000
X163000Y-93000
X163000Y-94000
X163000Y-95000
X163000Y-96000
X163000Y-97000
X163000Y-98000
T2
X85000Y-75000
X87540Y-75000
X90080Y-75000
X92620Y-75000
X95160Y-75000
X97700Y-75000
T3
X120000Y-65000
X165000Y-65000
X75000Y-65000
T0
M30
