G04 #@! TF.GenerationSoftware,KiCad,Pcbnew,5.0-dev-unknown-bc6763e~61~ubuntu16.04.1*
G04 #@! TF.CreationDate,2018-04-03T01:47:12-04:00*
G04 #@! TF.ProjectId,SB-4S5A,53422D345335412E6B696361645F7063,rev?*
G04 #@! TF.SameCoordinates,Original*
G04 #@! TF.FileFunction,Copper,L1,Top,Signal*
G04 #@! TF.FilePolarity,Positive*
%FSLAX46Y46*%
G04 Gerber Fmt 4.6, Leading zero omitted, Abs format (unit mm)*
G04 Created by KiCad (PCBNEW 5.0-dev-unknown-bc6763e~61~ubuntu16.04.1) date Tue Apr  3 01:47:12 2018*
%MOMM*%
%LPD*%
G01*
G04 APERTURE LIST*
%ADD10C,6.400000*%
%ADD11R,0.400000X0.600000*%
%ADD12C,0.100000*%
%ADD13C,8.000000*%
%ADD14R,0.600000X0.500000*%
%ADD15R,0.500000X0.600000*%
%ADD16R,0.600000X0.450000*%
%ADD17R,1.230000X0.950000*%
%ADD18R,0.500000X0.630000*%
%ADD19R,0.800000X0.900000*%
%ADD20R,0.600000X0.400000*%
%ADD21R,1.700000X0.900000*%
%ADD22O,0.200000X0.600000*%
%ADD23O,0.600000X0.200000*%
%ADD24R,1.400000X1.400000*%
%ADD25C,2.000000*%
%ADD26R,2.000000X2.000000*%
%ADD27C,0.800000*%
%ADD28C,0.200000*%
%ADD29C,0.250000*%
%ADD30C,0.254000*%
%ADD31C,0.160000*%
G04 APERTURE END LIST*
D10*
X75000000Y-65000000D03*
X120000000Y-65000000D03*
X165000000Y-65000000D03*
D11*
X88550000Y-95000000D03*
X89450000Y-95000000D03*
D12*
G36*
X160196034Y-82009631D02*
X160390181Y-82038429D01*
X160580569Y-82086119D01*
X160765367Y-82152241D01*
X160942793Y-82236157D01*
X161111140Y-82337061D01*
X161268787Y-82453979D01*
X161414214Y-82585786D01*
X161546021Y-82731213D01*
X161662939Y-82888860D01*
X161763843Y-83057207D01*
X161847759Y-83234633D01*
X161913881Y-83419431D01*
X161961571Y-83609819D01*
X161990369Y-83803966D01*
X162000000Y-84000000D01*
X162000000Y-96000000D01*
X161990369Y-96196034D01*
X161961571Y-96390181D01*
X161913881Y-96580569D01*
X161847759Y-96765367D01*
X161763843Y-96942793D01*
X161662939Y-97111140D01*
X161546021Y-97268787D01*
X161414214Y-97414214D01*
X161268787Y-97546021D01*
X161111140Y-97662939D01*
X160942793Y-97763843D01*
X160765367Y-97847759D01*
X160580569Y-97913881D01*
X160390181Y-97961571D01*
X160196034Y-97990369D01*
X160000000Y-98000000D01*
X156000000Y-98000000D01*
X155803966Y-97990369D01*
X155609819Y-97961571D01*
X155419431Y-97913881D01*
X155234633Y-97847759D01*
X155057207Y-97763843D01*
X154888860Y-97662939D01*
X154731213Y-97546021D01*
X154585786Y-97414214D01*
X154453979Y-97268787D01*
X154337061Y-97111140D01*
X154236157Y-96942793D01*
X154152241Y-96765367D01*
X154086119Y-96580569D01*
X154038429Y-96390181D01*
X154009631Y-96196034D01*
X154000000Y-96000000D01*
X154000000Y-84000000D01*
X154009631Y-83803966D01*
X154038429Y-83609819D01*
X154086119Y-83419431D01*
X154152241Y-83234633D01*
X154236157Y-83057207D01*
X154337061Y-82888860D01*
X154453979Y-82731213D01*
X154585786Y-82585786D01*
X154731213Y-82453979D01*
X154888860Y-82337061D01*
X155057207Y-82236157D01*
X155234633Y-82152241D01*
X155419431Y-82086119D01*
X155609819Y-82038429D01*
X155803966Y-82009631D01*
X156000000Y-82000000D01*
X160000000Y-82000000D01*
X160196034Y-82009631D01*
X160196034Y-82009631D01*
G37*
D13*
X158000000Y-90000000D03*
D12*
G36*
X134196034Y-82009631D02*
X134390181Y-82038429D01*
X134580569Y-82086119D01*
X134765367Y-82152241D01*
X134942793Y-82236157D01*
X135111140Y-82337061D01*
X135268787Y-82453979D01*
X135414214Y-82585786D01*
X135546021Y-82731213D01*
X135662939Y-82888860D01*
X135763843Y-83057207D01*
X135847759Y-83234633D01*
X135913881Y-83419431D01*
X135961571Y-83609819D01*
X135990369Y-83803966D01*
X136000000Y-84000000D01*
X136000000Y-96000000D01*
X135990369Y-96196034D01*
X135961571Y-96390181D01*
X135913881Y-96580569D01*
X135847759Y-96765367D01*
X135763843Y-96942793D01*
X135662939Y-97111140D01*
X135546021Y-97268787D01*
X135414214Y-97414214D01*
X135268787Y-97546021D01*
X135111140Y-97662939D01*
X134942793Y-97763843D01*
X134765367Y-97847759D01*
X134580569Y-97913881D01*
X134390181Y-97961571D01*
X134196034Y-97990369D01*
X134000000Y-98000000D01*
X130000000Y-98000000D01*
X129803966Y-97990369D01*
X129609819Y-97961571D01*
X129419431Y-97913881D01*
X129234633Y-97847759D01*
X129057207Y-97763843D01*
X128888860Y-97662939D01*
X128731213Y-97546021D01*
X128585786Y-97414214D01*
X128453979Y-97268787D01*
X128337061Y-97111140D01*
X128236157Y-96942793D01*
X128152241Y-96765367D01*
X128086119Y-96580569D01*
X128038429Y-96390181D01*
X128009631Y-96196034D01*
X128000000Y-96000000D01*
X128000000Y-84000000D01*
X128009631Y-83803966D01*
X128038429Y-83609819D01*
X128086119Y-83419431D01*
X128152241Y-83234633D01*
X128236157Y-83057207D01*
X128337061Y-82888860D01*
X128453979Y-82731213D01*
X128585786Y-82585786D01*
X128731213Y-82453979D01*
X128888860Y-82337061D01*
X129057207Y-82236157D01*
X129234633Y-82152241D01*
X129419431Y-82086119D01*
X129609819Y-82038429D01*
X129803966Y-82009631D01*
X130000000Y-82000000D01*
X134000000Y-82000000D01*
X134196034Y-82009631D01*
X134196034Y-82009631D01*
G37*
D13*
X132000000Y-90000000D03*
D12*
G36*
X110196034Y-82009631D02*
X110390181Y-82038429D01*
X110580569Y-82086119D01*
X110765367Y-82152241D01*
X110942793Y-82236157D01*
X111111140Y-82337061D01*
X111268787Y-82453979D01*
X111414214Y-82585786D01*
X111546021Y-82731213D01*
X111662939Y-82888860D01*
X111763843Y-83057207D01*
X111847759Y-83234633D01*
X111913881Y-83419431D01*
X111961571Y-83609819D01*
X111990369Y-83803966D01*
X112000000Y-84000000D01*
X112000000Y-96000000D01*
X111990369Y-96196034D01*
X111961571Y-96390181D01*
X111913881Y-96580569D01*
X111847759Y-96765367D01*
X111763843Y-96942793D01*
X111662939Y-97111140D01*
X111546021Y-97268787D01*
X111414214Y-97414214D01*
X111268787Y-97546021D01*
X111111140Y-97662939D01*
X110942793Y-97763843D01*
X110765367Y-97847759D01*
X110580569Y-97913881D01*
X110390181Y-97961571D01*
X110196034Y-97990369D01*
X110000000Y-98000000D01*
X106000000Y-98000000D01*
X105803966Y-97990369D01*
X105609819Y-97961571D01*
X105419431Y-97913881D01*
X105234633Y-97847759D01*
X105057207Y-97763843D01*
X104888860Y-97662939D01*
X104731213Y-97546021D01*
X104585786Y-97414214D01*
X104453979Y-97268787D01*
X104337061Y-97111140D01*
X104236157Y-96942793D01*
X104152241Y-96765367D01*
X104086119Y-96580569D01*
X104038429Y-96390181D01*
X104009631Y-96196034D01*
X104000000Y-96000000D01*
X104000000Y-84000000D01*
X104009631Y-83803966D01*
X104038429Y-83609819D01*
X104086119Y-83419431D01*
X104152241Y-83234633D01*
X104236157Y-83057207D01*
X104337061Y-82888860D01*
X104453979Y-82731213D01*
X104585786Y-82585786D01*
X104731213Y-82453979D01*
X104888860Y-82337061D01*
X105057207Y-82236157D01*
X105234633Y-82152241D01*
X105419431Y-82086119D01*
X105609819Y-82038429D01*
X105803966Y-82009631D01*
X106000000Y-82000000D01*
X110000000Y-82000000D01*
X110196034Y-82009631D01*
X110196034Y-82009631D01*
G37*
D13*
X108000000Y-90000000D03*
D12*
G36*
X84196034Y-82009631D02*
X84390181Y-82038429D01*
X84580569Y-82086119D01*
X84765367Y-82152241D01*
X84942793Y-82236157D01*
X85111140Y-82337061D01*
X85268787Y-82453979D01*
X85414214Y-82585786D01*
X85546021Y-82731213D01*
X85662939Y-82888860D01*
X85763843Y-83057207D01*
X85847759Y-83234633D01*
X85913881Y-83419431D01*
X85961571Y-83609819D01*
X85990369Y-83803966D01*
X86000000Y-84000000D01*
X86000000Y-96000000D01*
X85990369Y-96196034D01*
X85961571Y-96390181D01*
X85913881Y-96580569D01*
X85847759Y-96765367D01*
X85763843Y-96942793D01*
X85662939Y-97111140D01*
X85546021Y-97268787D01*
X85414214Y-97414214D01*
X85268787Y-97546021D01*
X85111140Y-97662939D01*
X84942793Y-97763843D01*
X84765367Y-97847759D01*
X84580569Y-97913881D01*
X84390181Y-97961571D01*
X84196034Y-97990369D01*
X84000000Y-98000000D01*
X80000000Y-98000000D01*
X79803966Y-97990369D01*
X79609819Y-97961571D01*
X79419431Y-97913881D01*
X79234633Y-97847759D01*
X79057207Y-97763843D01*
X78888860Y-97662939D01*
X78731213Y-97546021D01*
X78585786Y-97414214D01*
X78453979Y-97268787D01*
X78337061Y-97111140D01*
X78236157Y-96942793D01*
X78152241Y-96765367D01*
X78086119Y-96580569D01*
X78038429Y-96390181D01*
X78009631Y-96196034D01*
X78000000Y-96000000D01*
X78000000Y-84000000D01*
X78009631Y-83803966D01*
X78038429Y-83609819D01*
X78086119Y-83419431D01*
X78152241Y-83234633D01*
X78236157Y-83057207D01*
X78337061Y-82888860D01*
X78453979Y-82731213D01*
X78585786Y-82585786D01*
X78731213Y-82453979D01*
X78888860Y-82337061D01*
X79057207Y-82236157D01*
X79234633Y-82152241D01*
X79419431Y-82086119D01*
X79609819Y-82038429D01*
X79803966Y-82009631D01*
X80000000Y-82000000D01*
X84000000Y-82000000D01*
X84196034Y-82009631D01*
X84196034Y-82009631D01*
G37*
D13*
X82000000Y-90000000D03*
D14*
X101775000Y-87500000D03*
X100675000Y-87500000D03*
X98600000Y-87500000D03*
X99700000Y-87500000D03*
X96525000Y-87500000D03*
X97625000Y-87500000D03*
X95550000Y-87500000D03*
X94450000Y-87500000D03*
D15*
X91225000Y-87550000D03*
X91225000Y-86450000D03*
D14*
X101200000Y-89750000D03*
X102300000Y-89750000D03*
D16*
X101200000Y-85500000D03*
X103300000Y-85500000D03*
D17*
X73170000Y-85090000D03*
X74390000Y-85090000D03*
X73170000Y-84140000D03*
X74390000Y-84140000D03*
D18*
X72810000Y-83560000D03*
X73450000Y-83560000D03*
X74110000Y-83560000D03*
X74750000Y-83560000D03*
X74750000Y-86440000D03*
X74110000Y-86440000D03*
X73450000Y-86440000D03*
X72810000Y-86440000D03*
X74690000Y-78580000D03*
X74050000Y-78580000D03*
X73390000Y-78580000D03*
X72750000Y-78580000D03*
X72750000Y-81460000D03*
X73390000Y-81460000D03*
X74050000Y-81460000D03*
X74690000Y-81460000D03*
D17*
X73110000Y-80880000D03*
X74330000Y-80880000D03*
X73110000Y-79930000D03*
X74330000Y-79930000D03*
D19*
X72750000Y-73500000D03*
X73700000Y-75500000D03*
X71800000Y-75500000D03*
D20*
X100000000Y-85550000D03*
X100000000Y-86450000D03*
X98750000Y-86450000D03*
X98750000Y-85550000D03*
X97500000Y-85550000D03*
X97500000Y-86450000D03*
X96250000Y-86450000D03*
X96250000Y-85550000D03*
D11*
X89275000Y-87625000D03*
X90175000Y-87625000D03*
D21*
X87500000Y-88450000D03*
X87500000Y-85550000D03*
D11*
X90175000Y-86375000D03*
X89275000Y-86375000D03*
X78200000Y-86000000D03*
X77300000Y-86000000D03*
D20*
X77250000Y-83800000D03*
X77250000Y-84700000D03*
D11*
X75300000Y-82500000D03*
X76200000Y-82500000D03*
X72550000Y-77250000D03*
X73450000Y-77250000D03*
X76200000Y-73500000D03*
X75300000Y-73500000D03*
X76200000Y-72250000D03*
X75300000Y-72250000D03*
X76200000Y-74750000D03*
X75300000Y-74750000D03*
X92550000Y-96000000D03*
X93450000Y-96000000D03*
X93450000Y-97250000D03*
X92550000Y-97250000D03*
X94550000Y-98000000D03*
X95450000Y-98000000D03*
X145450000Y-98000000D03*
X144550000Y-98000000D03*
D22*
X99400000Y-89850000D03*
X99000000Y-89850000D03*
X98600000Y-89850000D03*
X98200000Y-89850000D03*
X97800000Y-89850000D03*
X97400000Y-89850000D03*
X97000000Y-89850000D03*
X96600000Y-89850000D03*
D23*
X96100000Y-90350000D03*
X96100000Y-90750000D03*
X96100000Y-91150000D03*
X96100000Y-91550000D03*
X96100000Y-91950000D03*
X96100000Y-92350000D03*
X96100000Y-92750000D03*
X96100000Y-93150000D03*
D22*
X96600000Y-93650000D03*
X97000000Y-93650000D03*
X97400000Y-93650000D03*
X97800000Y-93650000D03*
X98200000Y-93650000D03*
X98600000Y-93650000D03*
X99000000Y-93650000D03*
X99400000Y-93650000D03*
D23*
X99900000Y-93150000D03*
X99900000Y-92750000D03*
X99900000Y-92350000D03*
X99900000Y-91950000D03*
X99900000Y-91550000D03*
X99900000Y-91150000D03*
X99900000Y-90750000D03*
X99900000Y-90350000D03*
D24*
X98000000Y-91750000D03*
D11*
X92550000Y-93500000D03*
X93450000Y-93500000D03*
X93450000Y-94750000D03*
X92550000Y-94750000D03*
D25*
X97700000Y-75000000D03*
X95160000Y-75000000D03*
X92620000Y-75000000D03*
X90080000Y-75000000D03*
X87540000Y-75000000D03*
D26*
X85000000Y-75000000D03*
D27*
X90199990Y-95000000D03*
X102067992Y-88750000D03*
X85400000Y-81250000D03*
X100390104Y-84429149D03*
X153000000Y-85000000D03*
X145000000Y-97000000D03*
X95000000Y-97000000D03*
X94500000Y-86500000D03*
X98000000Y-91750000D03*
X92800000Y-90800000D03*
X93000000Y-98600000D03*
X143200000Y-98600000D03*
X92800000Y-92000000D03*
X93800000Y-92200000D03*
X143250000Y-97500000D03*
X94750000Y-92750000D03*
X153000000Y-98000000D03*
X153000000Y-97000000D03*
X153000000Y-96000000D03*
X153000000Y-95000000D03*
X153000000Y-94000000D03*
X153000000Y-93000000D03*
X153000000Y-92000000D03*
X153000000Y-91000000D03*
X153000000Y-90000000D03*
X153000000Y-89000000D03*
X153000000Y-88000000D03*
X153000000Y-87000000D03*
X153000000Y-86000000D03*
X153000000Y-84000000D03*
X153000000Y-83000000D03*
X153000000Y-82000000D03*
X154000000Y-81000000D03*
X155000000Y-81000000D03*
X156000000Y-81000000D03*
X157000000Y-81000000D03*
X158000000Y-81000000D03*
X159000000Y-81000000D03*
X160000000Y-81000000D03*
X161000000Y-81000000D03*
X162000000Y-81000000D03*
X163000000Y-82000000D03*
X163000000Y-83000000D03*
X163000000Y-84000000D03*
X163000000Y-85000000D03*
X163000000Y-86000000D03*
X163000000Y-87000000D03*
X163000000Y-88000000D03*
X163000000Y-89000000D03*
X163000000Y-90000000D03*
X163000000Y-91000000D03*
X163000000Y-92000000D03*
X163000000Y-93000000D03*
X163000000Y-94000000D03*
X163000000Y-95000000D03*
X163000000Y-96000000D03*
X163000000Y-97000000D03*
X163000000Y-98000000D03*
X162000000Y-99000000D03*
X161000000Y-99000000D03*
X160000000Y-99000000D03*
X159000000Y-99000000D03*
X158000000Y-99000000D03*
X157000000Y-99000000D03*
X156000000Y-99000000D03*
X155000000Y-99000000D03*
X154000000Y-99000000D03*
X96200000Y-84550000D03*
X88250000Y-94000000D03*
X88250000Y-93000000D03*
X88250000Y-92000000D03*
X88250000Y-91000000D03*
X88250000Y-90000000D03*
X86750000Y-90000000D03*
X86750000Y-91000000D03*
X86750000Y-92000000D03*
X86750000Y-93000000D03*
X86750000Y-94000000D03*
X86750000Y-95000000D03*
X87500000Y-89250000D03*
X90450000Y-89000000D03*
X89500000Y-89000000D03*
X91100000Y-89700000D03*
X91750000Y-90400000D03*
X102000000Y-95600000D03*
X76200000Y-84400000D03*
X99800000Y-95000000D03*
X77400000Y-82600000D03*
X100400000Y-97000000D03*
X78200000Y-71800000D03*
X77200000Y-74000000D03*
X98600000Y-97000000D03*
D28*
X89450000Y-95000000D02*
X90199990Y-95000000D01*
X102300000Y-89750000D02*
X102300000Y-88982008D01*
X102300000Y-88982008D02*
X102067992Y-88750000D01*
D29*
X78400000Y-70500000D02*
X86140000Y-70500000D01*
X86140000Y-70500000D02*
X87190000Y-71550000D01*
D28*
X96100000Y-91950000D02*
X95550000Y-91950000D01*
X95550000Y-91950000D02*
X94750000Y-92750000D01*
X101425000Y-78725000D02*
X98750000Y-81400000D01*
X98750000Y-81400000D02*
X98750000Y-85150000D01*
X105300000Y-78725000D02*
X108000000Y-81425000D01*
X108000000Y-81425000D02*
X108000000Y-90000000D01*
X101425000Y-78725000D02*
X105300000Y-78725000D01*
X98750000Y-85550000D02*
X98750000Y-85150000D01*
X85400000Y-81250000D02*
X85400000Y-86600000D01*
X85400000Y-86600000D02*
X82000000Y-90000000D01*
X100000000Y-85550000D02*
X100000000Y-84819253D01*
X100000000Y-84819253D02*
X100390104Y-84429149D01*
X100405020Y-78324990D02*
X97500000Y-81230010D01*
X97500000Y-81230010D02*
X97500000Y-84980010D01*
X100405020Y-78324990D02*
X105524990Y-78324990D01*
X105524990Y-78324990D02*
X108600000Y-81400000D01*
X97500000Y-85550000D02*
X97500000Y-84980010D01*
D29*
X149400000Y-81400000D02*
X108700000Y-81400000D01*
D28*
X145450000Y-98000000D02*
X145450000Y-97450000D01*
X145450000Y-97450000D02*
X145000000Y-97000000D01*
X95450000Y-98000000D02*
X95450000Y-97450000D01*
X95450000Y-97450000D02*
X95000000Y-97000000D01*
X94450000Y-87500000D02*
X94450000Y-86550000D01*
X94450000Y-86550000D02*
X94500000Y-86500000D01*
D29*
X73700000Y-75500000D02*
X74550000Y-75500000D01*
X74550000Y-75500000D02*
X75300000Y-74750000D01*
D28*
X71800000Y-72700000D02*
X72250000Y-72250000D01*
X72250000Y-72250000D02*
X75300000Y-72250000D01*
X71800000Y-75500000D02*
X71800000Y-72700000D01*
D29*
X87750000Y-86750000D02*
X87500000Y-86500000D01*
X87500000Y-86500000D02*
X87500000Y-85550000D01*
X89000000Y-86750000D02*
X87750000Y-86750000D01*
X89275000Y-86475000D02*
X89000000Y-86750000D01*
X89275000Y-86375000D02*
X89275000Y-86475000D01*
X87190000Y-71550000D02*
X87190000Y-74000000D01*
X76200000Y-72250000D02*
X76650000Y-72250000D01*
X76650000Y-72250000D02*
X78400000Y-70500000D01*
D28*
X92800000Y-90800000D02*
X93365685Y-90800000D01*
X93365685Y-90800000D02*
X93415685Y-90750000D01*
X93415685Y-90750000D02*
X95600000Y-90750000D01*
X95600000Y-90750000D02*
X96100000Y-90750000D01*
X93550000Y-98600000D02*
X93000000Y-98600000D01*
X94550000Y-98000000D02*
X94150000Y-98000000D01*
X94150000Y-98000000D02*
X93550000Y-98600000D01*
X144550000Y-98000000D02*
X143800000Y-98000000D01*
X143800000Y-98000000D02*
X143200000Y-98600000D01*
X93410010Y-91189990D02*
X92800000Y-91800000D01*
X92800000Y-91800000D02*
X92800000Y-92000000D01*
X96100000Y-91150000D02*
X96050000Y-91150000D01*
X96050000Y-91150000D02*
X96010010Y-91189990D01*
X96010010Y-91189990D02*
X93410010Y-91189990D01*
X96100000Y-91550000D02*
X94450000Y-91550000D01*
X94450000Y-91550000D02*
X93800000Y-92200000D01*
X101200000Y-85500000D02*
X100050000Y-85500000D01*
X100050000Y-85500000D02*
X100000000Y-85550000D01*
X149400000Y-81400000D02*
X158000000Y-90000000D01*
X96250000Y-85550000D02*
X96250000Y-84600000D01*
X96250000Y-84600000D02*
X96200000Y-84550000D01*
D29*
X89275000Y-87625000D02*
X89275000Y-87525000D01*
X89275000Y-87525000D02*
X89000000Y-87250000D01*
X87750000Y-87250000D02*
X89000000Y-87250000D01*
X87500000Y-87500000D02*
X87750000Y-87250000D01*
X87500000Y-88450000D02*
X87500000Y-87500000D01*
D28*
X99000000Y-89850000D02*
X99000000Y-88759131D01*
X101000000Y-88250000D02*
X101000000Y-88225000D01*
X99509130Y-88250000D02*
X101000000Y-88250000D01*
X99000000Y-88759131D02*
X99509130Y-88250000D01*
X101000000Y-88225000D02*
X101725000Y-87500000D01*
X101193002Y-87000000D02*
X101225000Y-87000000D01*
X101225000Y-87000000D02*
X101725000Y-87500000D01*
X101725000Y-87500000D02*
X101775000Y-87500000D01*
X100000000Y-86450000D02*
X100643002Y-86450000D01*
X100643002Y-86450000D02*
X101193002Y-87000000D01*
X98600000Y-89850000D02*
X98600000Y-88650000D01*
X98600000Y-88650000D02*
X98879989Y-88370011D01*
X98750000Y-86450000D02*
X98750000Y-86550000D01*
X98750000Y-86550000D02*
X99700000Y-87500000D01*
X98879989Y-88370011D02*
X99750000Y-87500000D01*
X99700000Y-87500000D02*
X100675000Y-87500000D01*
X98200000Y-88550000D02*
X98200000Y-89850000D01*
X98200000Y-88550000D02*
X98600000Y-88150000D01*
X98600000Y-88150000D02*
X98600000Y-87500000D01*
X97500000Y-86450000D02*
X97500000Y-87375000D01*
X97500000Y-87375000D02*
X97625000Y-87500000D01*
X97625000Y-87500000D02*
X98600000Y-87500000D01*
X97575000Y-87500000D02*
X97625000Y-87500000D01*
X97800000Y-89850000D02*
X97800000Y-88550000D01*
X96525000Y-87500000D02*
X96575000Y-87500000D01*
X96575000Y-87500000D02*
X97075000Y-88000000D01*
X97075000Y-88000000D02*
X97250000Y-88000000D01*
X97800000Y-88550000D02*
X97250000Y-88000000D01*
X96250000Y-86500000D02*
X96525000Y-86775000D01*
X96525000Y-86775000D02*
X96525000Y-87500000D01*
X96250000Y-86450000D02*
X96250000Y-86500000D01*
X95550000Y-87500000D02*
X96525000Y-87500000D01*
X92250000Y-89000000D02*
X93100000Y-89850000D01*
X93100000Y-89850000D02*
X96600000Y-89850000D01*
X92250000Y-88125000D02*
X92250000Y-89000000D01*
X91225000Y-87550000D02*
X91675000Y-87550000D01*
X91675000Y-87550000D02*
X92250000Y-88125000D01*
X90175000Y-87625000D02*
X91150000Y-87625000D01*
X91150000Y-87625000D02*
X91225000Y-87550000D01*
X92750000Y-87525000D02*
X92750000Y-88750000D01*
X91675000Y-86450000D02*
X92750000Y-87525000D01*
X91225000Y-86450000D02*
X91675000Y-86450000D01*
X97400000Y-89350000D02*
X97400000Y-89850000D01*
X92750000Y-88750000D02*
X93250000Y-89250000D01*
X93250000Y-89250000D02*
X97300000Y-89250000D01*
X97300000Y-89250000D02*
X97400000Y-89350000D01*
X90175000Y-86375000D02*
X91150000Y-86375000D01*
X91150000Y-86375000D02*
X91225000Y-86450000D01*
X99400000Y-89850000D02*
X101100000Y-89850000D01*
X101100000Y-89850000D02*
X101200000Y-89750000D01*
X102850001Y-90218001D02*
X102850001Y-89381998D01*
X102718002Y-90350000D02*
X102850001Y-90218001D01*
X102850001Y-89381998D02*
X102718002Y-89249999D01*
X102718002Y-86506998D02*
X103300000Y-85925000D01*
X99900000Y-90350000D02*
X102718002Y-90350000D01*
X102718002Y-89249999D02*
X102718002Y-86506998D01*
X103300000Y-85925000D02*
X103300000Y-85500000D01*
X91200000Y-95400000D02*
X91800000Y-96000000D01*
X91800000Y-96000000D02*
X92550000Y-96000000D01*
X91200000Y-94400000D02*
X91200000Y-95400000D01*
X90450000Y-93650000D02*
X91200000Y-94400000D01*
X90450000Y-89000000D02*
X90450000Y-93650000D01*
X92550000Y-96000000D02*
X92550000Y-96100000D01*
X90850000Y-96350000D02*
X91750000Y-97250000D01*
X91750000Y-97250000D02*
X92550000Y-97250000D01*
X90850000Y-94550000D02*
X90850000Y-96350000D01*
X89500000Y-93200000D02*
X90850000Y-94550000D01*
X89500000Y-89000000D02*
X89500000Y-93200000D01*
X91100000Y-93800000D02*
X92050000Y-94750000D01*
X92050000Y-94750000D02*
X92550000Y-94750000D01*
X91100000Y-89700000D02*
X91100000Y-93800000D01*
X92550000Y-94750000D02*
X92550000Y-94650000D01*
X91750000Y-90400000D02*
X91750000Y-93100000D01*
X91750000Y-93100000D02*
X92150000Y-93500000D01*
X92150000Y-93500000D02*
X92550000Y-93500000D01*
X77300000Y-86000000D02*
X77300000Y-84750000D01*
X77300000Y-84750000D02*
X77250000Y-84700000D01*
X74750000Y-86440000D02*
X76810000Y-86440000D01*
X76810000Y-86440000D02*
X77250000Y-86000000D01*
X72750000Y-78580000D02*
X72750000Y-77450000D01*
X72750000Y-77450000D02*
X72550000Y-77250000D01*
X72550000Y-77250000D02*
X72550000Y-73700000D01*
X72550000Y-73700000D02*
X72750000Y-73500000D01*
X75300000Y-73500000D02*
X72750000Y-73500000D01*
X102000000Y-95600000D02*
X102034315Y-91010000D01*
X102034315Y-91010000D02*
X101774315Y-90750000D01*
X101774315Y-90750000D02*
X100400000Y-90750000D01*
X100400000Y-90750000D02*
X99900000Y-90750000D01*
X77250000Y-83800000D02*
X76800000Y-83800000D01*
X76800000Y-83800000D02*
X76200000Y-84400000D01*
X100800000Y-93150000D02*
X100800000Y-94000000D01*
X100800000Y-94000000D02*
X99800000Y-95000000D01*
X99900000Y-92750000D02*
X100400000Y-92750000D01*
X100400000Y-92750000D02*
X100800000Y-93150000D01*
X76200000Y-82500000D02*
X77300000Y-82500000D01*
X77300000Y-82500000D02*
X77400000Y-82600000D01*
X101520020Y-92520020D02*
X100950000Y-91950000D01*
X100950000Y-91950000D02*
X99900000Y-91950000D01*
X100400000Y-97000000D02*
X100400000Y-96109127D01*
X100400000Y-96109127D02*
X101520020Y-94989107D01*
X101520020Y-94989107D02*
X101520020Y-92520020D01*
X76200000Y-73500000D02*
X76200000Y-73400000D01*
X76200000Y-73400000D02*
X77800000Y-71800000D01*
X77800000Y-71800000D02*
X78200000Y-71800000D01*
X76200000Y-74750000D02*
X76450000Y-74750000D01*
X76450000Y-74750000D02*
X77200000Y-74000000D01*
X101160010Y-94839990D02*
X99000000Y-97000000D01*
X99000000Y-97000000D02*
X98600000Y-97000000D01*
X99900000Y-92350000D02*
X100509130Y-92350000D01*
X100509130Y-92350000D02*
X101160010Y-93000879D01*
X101160010Y-93000879D02*
X101160010Y-94839990D01*
X97400000Y-93650000D02*
X97400000Y-94150000D01*
X97400000Y-94150000D02*
X95449989Y-96100011D01*
X94499989Y-96100011D02*
X93450000Y-97150000D01*
X93450000Y-97150000D02*
X93450000Y-97250000D01*
X95449989Y-96100011D02*
X94499989Y-96100011D01*
X95194988Y-95750000D02*
X94100000Y-95750000D01*
X94100000Y-95750000D02*
X93850000Y-96000000D01*
X93850000Y-96000000D02*
X93450000Y-96000000D01*
X97000000Y-93944988D02*
X95194988Y-95750000D01*
X97000000Y-93650000D02*
X97000000Y-93944988D01*
X93450000Y-93500000D02*
X95055012Y-93500000D01*
X95055012Y-93500000D02*
X95805012Y-92750000D01*
X95805012Y-92750000D02*
X96100000Y-92750000D01*
X93500000Y-93550000D02*
X93450000Y-93500000D01*
X96100000Y-93150000D02*
X96100000Y-93450000D01*
X94800000Y-94750000D02*
X93850000Y-94750000D01*
X96100000Y-93450000D02*
X94800000Y-94750000D01*
X93850000Y-94750000D02*
X93450000Y-94750000D01*
D30*
G36*
X127365000Y-87468250D02*
X127523750Y-87627000D01*
X130000000Y-87627000D01*
X130000000Y-87607000D01*
X134000000Y-87607000D01*
X134000000Y-87627000D01*
X134393000Y-87627000D01*
X134393000Y-92373000D01*
X134000000Y-92373000D01*
X134000000Y-92393000D01*
X130000000Y-92393000D01*
X130000000Y-92373000D01*
X127523750Y-92373000D01*
X127365000Y-92531750D01*
X127365000Y-97873000D01*
X112635000Y-97873000D01*
X112635000Y-92531750D01*
X112476250Y-92373000D01*
X110000000Y-92373000D01*
X110000000Y-92393000D01*
X106000000Y-92393000D01*
X106000000Y-92373000D01*
X105607000Y-92373000D01*
X105607000Y-87627000D01*
X106000000Y-87627000D01*
X106000000Y-87607000D01*
X110000000Y-87607000D01*
X110000000Y-87627000D01*
X112476250Y-87627000D01*
X112635000Y-87468250D01*
X112635000Y-82127000D01*
X127365000Y-82127000D01*
X127365000Y-87468250D01*
X127365000Y-87468250D01*
G37*
X127365000Y-87468250D02*
X127523750Y-87627000D01*
X130000000Y-87627000D01*
X130000000Y-87607000D01*
X134000000Y-87607000D01*
X134000000Y-87627000D01*
X134393000Y-87627000D01*
X134393000Y-92373000D01*
X134000000Y-92373000D01*
X134000000Y-92393000D01*
X130000000Y-92393000D01*
X130000000Y-92373000D01*
X127523750Y-92373000D01*
X127365000Y-92531750D01*
X127365000Y-97873000D01*
X112635000Y-97873000D01*
X112635000Y-92531750D01*
X112476250Y-92373000D01*
X110000000Y-92373000D01*
X110000000Y-92393000D01*
X106000000Y-92393000D01*
X106000000Y-92373000D01*
X105607000Y-92373000D01*
X105607000Y-87627000D01*
X106000000Y-87627000D01*
X106000000Y-87607000D01*
X110000000Y-87607000D01*
X110000000Y-87627000D01*
X112476250Y-87627000D01*
X112635000Y-87468250D01*
X112635000Y-82127000D01*
X127365000Y-82127000D01*
X127365000Y-87468250D01*
G36*
X163873000Y-99873000D02*
X152127000Y-99873000D01*
X152127000Y-92531750D01*
X153365000Y-92531750D01*
X153365000Y-98126310D01*
X153461673Y-98359699D01*
X153640302Y-98538327D01*
X153873691Y-98635000D01*
X155841250Y-98635000D01*
X156000000Y-98476250D01*
X156000000Y-92373000D01*
X160000000Y-92373000D01*
X160000000Y-98476250D01*
X160158750Y-98635000D01*
X162126309Y-98635000D01*
X162359698Y-98538327D01*
X162538327Y-98359699D01*
X162635000Y-98126310D01*
X162635000Y-92531750D01*
X162476250Y-92373000D01*
X160000000Y-92373000D01*
X156000000Y-92373000D01*
X153523750Y-92373000D01*
X153365000Y-92531750D01*
X152127000Y-92531750D01*
X152127000Y-81873690D01*
X153365000Y-81873690D01*
X153365000Y-87468250D01*
X153523750Y-87627000D01*
X156000000Y-87627000D01*
X156000000Y-81523750D01*
X160000000Y-81523750D01*
X160000000Y-87627000D01*
X162476250Y-87627000D01*
X162635000Y-87468250D01*
X162635000Y-81873690D01*
X162538327Y-81640301D01*
X162359698Y-81461673D01*
X162126309Y-81365000D01*
X160158750Y-81365000D01*
X160000000Y-81523750D01*
X156000000Y-81523750D01*
X155841250Y-81365000D01*
X153873691Y-81365000D01*
X153640302Y-81461673D01*
X153461673Y-81640301D01*
X153365000Y-81873690D01*
X152127000Y-81873690D01*
X152127000Y-80127000D01*
X163873000Y-80127000D01*
X163873000Y-99873000D01*
X163873000Y-99873000D01*
G37*
X163873000Y-99873000D02*
X152127000Y-99873000D01*
X152127000Y-92531750D01*
X153365000Y-92531750D01*
X153365000Y-98126310D01*
X153461673Y-98359699D01*
X153640302Y-98538327D01*
X153873691Y-98635000D01*
X155841250Y-98635000D01*
X156000000Y-98476250D01*
X156000000Y-92373000D01*
X160000000Y-92373000D01*
X160000000Y-98476250D01*
X160158750Y-98635000D01*
X162126309Y-98635000D01*
X162359698Y-98538327D01*
X162538327Y-98359699D01*
X162635000Y-98126310D01*
X162635000Y-92531750D01*
X162476250Y-92373000D01*
X160000000Y-92373000D01*
X156000000Y-92373000D01*
X153523750Y-92373000D01*
X153365000Y-92531750D01*
X152127000Y-92531750D01*
X152127000Y-81873690D01*
X153365000Y-81873690D01*
X153365000Y-87468250D01*
X153523750Y-87627000D01*
X156000000Y-87627000D01*
X156000000Y-81523750D01*
X160000000Y-81523750D01*
X160000000Y-87627000D01*
X162476250Y-87627000D01*
X162635000Y-87468250D01*
X162635000Y-81873690D01*
X162538327Y-81640301D01*
X162359698Y-81461673D01*
X162126309Y-81365000D01*
X160158750Y-81365000D01*
X160000000Y-81523750D01*
X156000000Y-81523750D01*
X155841250Y-81365000D01*
X153873691Y-81365000D01*
X153640302Y-81461673D01*
X153461673Y-81640301D01*
X153365000Y-81873690D01*
X152127000Y-81873690D01*
X152127000Y-80127000D01*
X163873000Y-80127000D01*
X163873000Y-99873000D01*
G36*
X85873000Y-97873000D02*
X72127000Y-97873000D01*
X72127000Y-86127000D01*
X74207378Y-86127000D01*
X74207378Y-86755000D01*
X74229653Y-86866982D01*
X74293085Y-86961915D01*
X74388018Y-87025347D01*
X74500000Y-87047622D01*
X74882472Y-87047622D01*
X74882667Y-87048601D01*
X74910197Y-87089803D01*
X74951399Y-87117333D01*
X75000000Y-87127000D01*
X78000000Y-87127000D01*
X78048601Y-87117333D01*
X78089803Y-87089803D01*
X78117333Y-87048601D01*
X78127000Y-87000000D01*
X78127000Y-82127000D01*
X85873000Y-82127000D01*
X85873000Y-97873000D01*
X85873000Y-97873000D01*
G37*
X85873000Y-97873000D02*
X72127000Y-97873000D01*
X72127000Y-86127000D01*
X74207378Y-86127000D01*
X74207378Y-86755000D01*
X74229653Y-86866982D01*
X74293085Y-86961915D01*
X74388018Y-87025347D01*
X74500000Y-87047622D01*
X74882472Y-87047622D01*
X74882667Y-87048601D01*
X74910197Y-87089803D01*
X74951399Y-87117333D01*
X75000000Y-87127000D01*
X78000000Y-87127000D01*
X78048601Y-87117333D01*
X78089803Y-87089803D01*
X78117333Y-87048601D01*
X78127000Y-87000000D01*
X78127000Y-82127000D01*
X85873000Y-82127000D01*
X85873000Y-97873000D01*
G36*
X88623000Y-86373000D02*
X86377000Y-86373000D01*
X86377000Y-81800272D01*
X86387000Y-81750000D01*
X86387000Y-73727000D01*
X88623000Y-73727000D01*
X88623000Y-86373000D01*
X88623000Y-86373000D01*
G37*
X88623000Y-86373000D02*
X86377000Y-86373000D01*
X86377000Y-81800272D01*
X86387000Y-81750000D01*
X86387000Y-73727000D01*
X88623000Y-73727000D01*
X88623000Y-86373000D01*
G36*
X75373000Y-85623000D02*
X72127000Y-85623000D01*
X72127000Y-79377000D01*
X75373000Y-79377000D01*
X75373000Y-85623000D01*
X75373000Y-85623000D01*
G37*
X75373000Y-85623000D02*
X72127000Y-85623000D01*
X72127000Y-79377000D01*
X75373000Y-79377000D01*
X75373000Y-85623000D01*
G36*
X88623000Y-95873000D02*
X86377000Y-95873000D01*
X86377000Y-87627000D01*
X88623000Y-87627000D01*
X88623000Y-95873000D01*
X88623000Y-95873000D01*
G37*
X88623000Y-95873000D02*
X86377000Y-95873000D01*
X86377000Y-87627000D01*
X88623000Y-87627000D01*
X88623000Y-95873000D01*
D31*
G36*
X97060001Y-89616516D02*
X97060000Y-89616519D01*
X97060000Y-90083482D01*
X97079729Y-90182661D01*
X97154875Y-90295126D01*
X97267340Y-90370272D01*
X97400000Y-90396660D01*
X97532661Y-90370272D01*
X97600001Y-90325278D01*
X97667340Y-90370272D01*
X97800000Y-90396660D01*
X97932661Y-90370272D01*
X98000001Y-90325278D01*
X98067340Y-90370272D01*
X98200000Y-90396660D01*
X98332661Y-90370272D01*
X98400001Y-90325278D01*
X98467340Y-90370272D01*
X98600000Y-90396660D01*
X98732661Y-90370272D01*
X98800001Y-90325278D01*
X98867340Y-90370272D01*
X99000000Y-90396660D01*
X99132661Y-90370272D01*
X99200001Y-90325278D01*
X99267340Y-90370272D01*
X99361081Y-90388919D01*
X99379728Y-90482661D01*
X99424722Y-90550000D01*
X99379728Y-90617339D01*
X99353340Y-90750000D01*
X99379728Y-90882661D01*
X99424722Y-90950000D01*
X99379728Y-91017339D01*
X99353340Y-91150000D01*
X99379728Y-91282661D01*
X99454874Y-91395126D01*
X99567339Y-91470272D01*
X99666518Y-91490000D01*
X100133482Y-91490000D01*
X100232661Y-91470272D01*
X100345126Y-91395126D01*
X100420000Y-91283068D01*
X100420000Y-91610000D01*
X99666518Y-91610000D01*
X99567339Y-91629728D01*
X99454874Y-91704874D01*
X99379728Y-91817339D01*
X99353340Y-91950000D01*
X99379728Y-92082661D01*
X99424722Y-92150000D01*
X99379728Y-92217339D01*
X99353340Y-92350000D01*
X99379728Y-92482661D01*
X99424722Y-92550000D01*
X99379728Y-92617339D01*
X99353340Y-92750000D01*
X99379728Y-92882661D01*
X99424722Y-92950000D01*
X99379728Y-93017339D01*
X99353340Y-93150000D01*
X99379728Y-93282661D01*
X99454874Y-93395126D01*
X99567339Y-93470272D01*
X99666518Y-93490000D01*
X100133482Y-93490000D01*
X100232661Y-93470272D01*
X100345126Y-93395126D01*
X100420000Y-93283068D01*
X100420000Y-93899168D01*
X100149169Y-94170000D01*
X98733068Y-94170000D01*
X98845126Y-94095126D01*
X98920272Y-93982661D01*
X98940000Y-93883482D01*
X98940000Y-93416518D01*
X98920272Y-93317339D01*
X98845125Y-93204874D01*
X98732660Y-93129728D01*
X98600000Y-93103340D01*
X98467339Y-93129728D01*
X98400000Y-93174723D01*
X98332660Y-93129728D01*
X98200000Y-93103340D01*
X98067339Y-93129728D01*
X98000000Y-93174723D01*
X97932660Y-93129728D01*
X97800000Y-93103340D01*
X97667339Y-93129728D01*
X97600000Y-93174723D01*
X97532660Y-93129728D01*
X97400000Y-93103340D01*
X97267339Y-93129728D01*
X97200000Y-93174723D01*
X97132660Y-93129728D01*
X97000000Y-93103340D01*
X96867339Y-93129728D01*
X96800000Y-93174723D01*
X96732660Y-93129728D01*
X96638919Y-93111081D01*
X96620272Y-93017339D01*
X96575278Y-92950000D01*
X96620272Y-92882661D01*
X96646660Y-92750000D01*
X96620272Y-92617339D01*
X96545126Y-92504874D01*
X96432661Y-92429728D01*
X96333482Y-92410000D01*
X95838492Y-92410000D01*
X95805011Y-92403340D01*
X95771530Y-92410000D01*
X95672351Y-92429728D01*
X95580000Y-92491434D01*
X95580000Y-92400832D01*
X95690832Y-92290000D01*
X96333482Y-92290000D01*
X96432661Y-92270272D01*
X96545126Y-92195126D01*
X96620272Y-92082661D01*
X96646660Y-91950000D01*
X96620272Y-91817339D01*
X96575278Y-91750000D01*
X96620272Y-91682661D01*
X96646660Y-91550000D01*
X96620272Y-91417339D01*
X96575278Y-91350000D01*
X96620272Y-91282661D01*
X96646660Y-91150000D01*
X96620272Y-91017339D01*
X96575278Y-90950000D01*
X96620272Y-90882661D01*
X96646660Y-90750000D01*
X96620272Y-90617339D01*
X96545126Y-90504874D01*
X96432661Y-90429728D01*
X96333482Y-90410000D01*
X95580000Y-90410000D01*
X95580000Y-90190000D01*
X96284633Y-90190000D01*
X96354875Y-90295126D01*
X96467340Y-90370272D01*
X96600000Y-90396660D01*
X96732661Y-90370272D01*
X96845126Y-90295126D01*
X96920272Y-90182661D01*
X96940000Y-90083482D01*
X96940000Y-89883481D01*
X96946660Y-89850000D01*
X96940000Y-89816518D01*
X96940000Y-89616518D01*
X96934725Y-89590000D01*
X97060000Y-89590000D01*
X97060001Y-89616516D01*
X97060001Y-89616516D01*
G37*
X97060001Y-89616516D02*
X97060000Y-89616519D01*
X97060000Y-90083482D01*
X97079729Y-90182661D01*
X97154875Y-90295126D01*
X97267340Y-90370272D01*
X97400000Y-90396660D01*
X97532661Y-90370272D01*
X97600001Y-90325278D01*
X97667340Y-90370272D01*
X97800000Y-90396660D01*
X97932661Y-90370272D01*
X98000001Y-90325278D01*
X98067340Y-90370272D01*
X98200000Y-90396660D01*
X98332661Y-90370272D01*
X98400001Y-90325278D01*
X98467340Y-90370272D01*
X98600000Y-90396660D01*
X98732661Y-90370272D01*
X98800001Y-90325278D01*
X98867340Y-90370272D01*
X99000000Y-90396660D01*
X99132661Y-90370272D01*
X99200001Y-90325278D01*
X99267340Y-90370272D01*
X99361081Y-90388919D01*
X99379728Y-90482661D01*
X99424722Y-90550000D01*
X99379728Y-90617339D01*
X99353340Y-90750000D01*
X99379728Y-90882661D01*
X99424722Y-90950000D01*
X99379728Y-91017339D01*
X99353340Y-91150000D01*
X99379728Y-91282661D01*
X99454874Y-91395126D01*
X99567339Y-91470272D01*
X99666518Y-91490000D01*
X100133482Y-91490000D01*
X100232661Y-91470272D01*
X100345126Y-91395126D01*
X100420000Y-91283068D01*
X100420000Y-91610000D01*
X99666518Y-91610000D01*
X99567339Y-91629728D01*
X99454874Y-91704874D01*
X99379728Y-91817339D01*
X99353340Y-91950000D01*
X99379728Y-92082661D01*
X99424722Y-92150000D01*
X99379728Y-92217339D01*
X99353340Y-92350000D01*
X99379728Y-92482661D01*
X99424722Y-92550000D01*
X99379728Y-92617339D01*
X99353340Y-92750000D01*
X99379728Y-92882661D01*
X99424722Y-92950000D01*
X99379728Y-93017339D01*
X99353340Y-93150000D01*
X99379728Y-93282661D01*
X99454874Y-93395126D01*
X99567339Y-93470272D01*
X99666518Y-93490000D01*
X100133482Y-93490000D01*
X100232661Y-93470272D01*
X100345126Y-93395126D01*
X100420000Y-93283068D01*
X100420000Y-93899168D01*
X100149169Y-94170000D01*
X98733068Y-94170000D01*
X98845126Y-94095126D01*
X98920272Y-93982661D01*
X98940000Y-93883482D01*
X98940000Y-93416518D01*
X98920272Y-93317339D01*
X98845125Y-93204874D01*
X98732660Y-93129728D01*
X98600000Y-93103340D01*
X98467339Y-93129728D01*
X98400000Y-93174723D01*
X98332660Y-93129728D01*
X98200000Y-93103340D01*
X98067339Y-93129728D01*
X98000000Y-93174723D01*
X97932660Y-93129728D01*
X97800000Y-93103340D01*
X97667339Y-93129728D01*
X97600000Y-93174723D01*
X97532660Y-93129728D01*
X97400000Y-93103340D01*
X97267339Y-93129728D01*
X97200000Y-93174723D01*
X97132660Y-93129728D01*
X97000000Y-93103340D01*
X96867339Y-93129728D01*
X96800000Y-93174723D01*
X96732660Y-93129728D01*
X96638919Y-93111081D01*
X96620272Y-93017339D01*
X96575278Y-92950000D01*
X96620272Y-92882661D01*
X96646660Y-92750000D01*
X96620272Y-92617339D01*
X96545126Y-92504874D01*
X96432661Y-92429728D01*
X96333482Y-92410000D01*
X95838492Y-92410000D01*
X95805011Y-92403340D01*
X95771530Y-92410000D01*
X95672351Y-92429728D01*
X95580000Y-92491434D01*
X95580000Y-92400832D01*
X95690832Y-92290000D01*
X96333482Y-92290000D01*
X96432661Y-92270272D01*
X96545126Y-92195126D01*
X96620272Y-92082661D01*
X96646660Y-91950000D01*
X96620272Y-91817339D01*
X96575278Y-91750000D01*
X96620272Y-91682661D01*
X96646660Y-91550000D01*
X96620272Y-91417339D01*
X96575278Y-91350000D01*
X96620272Y-91282661D01*
X96646660Y-91150000D01*
X96620272Y-91017339D01*
X96575278Y-90950000D01*
X96620272Y-90882661D01*
X96646660Y-90750000D01*
X96620272Y-90617339D01*
X96545126Y-90504874D01*
X96432661Y-90429728D01*
X96333482Y-90410000D01*
X95580000Y-90410000D01*
X95580000Y-90190000D01*
X96284633Y-90190000D01*
X96354875Y-90295126D01*
X96467340Y-90370272D01*
X96600000Y-90396660D01*
X96732661Y-90370272D01*
X96845126Y-90295126D01*
X96920272Y-90182661D01*
X96940000Y-90083482D01*
X96940000Y-89883481D01*
X96946660Y-89850000D01*
X96940000Y-89816518D01*
X96940000Y-89616518D01*
X96934725Y-89590000D01*
X97060000Y-89590000D01*
X97060001Y-89616516D01*
D30*
G36*
X85973000Y-80851436D02*
X85789154Y-80667590D01*
X85536653Y-80563000D01*
X85263347Y-80563000D01*
X85010846Y-80667590D01*
X84817590Y-80860846D01*
X84713000Y-81113347D01*
X84713000Y-81386653D01*
X84810899Y-81623000D01*
X75877000Y-81623000D01*
X75877000Y-79000000D01*
X75867333Y-78951399D01*
X75839803Y-78910197D01*
X75798601Y-78882667D01*
X75750000Y-78873000D01*
X73292622Y-78873000D01*
X73292622Y-78265000D01*
X73270347Y-78153018D01*
X73206915Y-78058085D01*
X73137000Y-78011369D01*
X73137000Y-77488112D01*
X73144581Y-77450000D01*
X73127000Y-77361616D01*
X73127000Y-75127000D01*
X75722695Y-75127000D01*
X75729653Y-75161982D01*
X75793085Y-75256915D01*
X75888018Y-75320347D01*
X76000000Y-75342622D01*
X76400000Y-75342622D01*
X76511982Y-75320347D01*
X76606915Y-75256915D01*
X76670347Y-75161982D01*
X76677305Y-75127000D01*
X80500000Y-75127000D01*
X80548601Y-75117333D01*
X80589803Y-75089803D01*
X80617333Y-75048601D01*
X80627000Y-75000000D01*
X80627000Y-73777000D01*
X85973000Y-73777000D01*
X85973000Y-80851436D01*
X85973000Y-80851436D01*
G37*
X85973000Y-80851436D02*
X85789154Y-80667590D01*
X85536653Y-80563000D01*
X85263347Y-80563000D01*
X85010846Y-80667590D01*
X84817590Y-80860846D01*
X84713000Y-81113347D01*
X84713000Y-81386653D01*
X84810899Y-81623000D01*
X75877000Y-81623000D01*
X75877000Y-79000000D01*
X75867333Y-78951399D01*
X75839803Y-78910197D01*
X75798601Y-78882667D01*
X75750000Y-78873000D01*
X73292622Y-78873000D01*
X73292622Y-78265000D01*
X73270347Y-78153018D01*
X73206915Y-78058085D01*
X73137000Y-78011369D01*
X73137000Y-77488112D01*
X73144581Y-77450000D01*
X73127000Y-77361616D01*
X73127000Y-75127000D01*
X75722695Y-75127000D01*
X75729653Y-75161982D01*
X75793085Y-75256915D01*
X75888018Y-75320347D01*
X76000000Y-75342622D01*
X76400000Y-75342622D01*
X76511982Y-75320347D01*
X76606915Y-75256915D01*
X76670347Y-75161982D01*
X76677305Y-75127000D01*
X80500000Y-75127000D01*
X80548601Y-75117333D01*
X80589803Y-75089803D01*
X80617333Y-75048601D01*
X80627000Y-75000000D01*
X80627000Y-73777000D01*
X85973000Y-73777000D01*
X85973000Y-80851436D01*
M02*
