G04 #@! TF.GenerationSoftware,KiCad,Pcbnew,5.0-dev-unknown-bc6763e~61~ubuntu16.04.1*
G04 #@! TF.CreationDate,2018-04-03T01:47:12-04:00*
G04 #@! TF.ProjectId,SB-4S5A,53422D345335412E6B696361645F7063,rev?*
G04 #@! TF.SameCoordinates,Original*
G04 #@! TF.FileFunction,Legend,Bot*
G04 #@! TF.FilePolarity,Positive*
%FSLAX46Y46*%
G04 Gerber Fmt 4.6, Leading zero omitted, Abs format (unit mm)*
G04 Created by KiCad (PCBNEW 5.0-dev-unknown-bc6763e~61~ubuntu16.04.1) date Tue Apr  3 01:47:12 2018*
%MOMM*%
%LPD*%
G01*
G04 APERTURE LIST*
%ADD10C,0.150000*%
%ADD11C,0.500000*%
%ADD12C,0.120000*%
G04 APERTURE END LIST*
D10*
X170000000Y-100000000D02*
X170000000Y-100000000D01*
D11*
X120000000Y-100000000D02*
X170000000Y-100000000D01*
X120000000Y-170000000D02*
X120000000Y-100000000D01*
X170000000Y-170000000D02*
X120000000Y-170000000D01*
X170000000Y-100000000D02*
X170000000Y-170000000D01*
D10*
X120000000Y-100000000D02*
X120000000Y-100000000D01*
D11*
X70000000Y-100000000D02*
X120000000Y-100000000D01*
X70000000Y-170000000D02*
X70000000Y-100000000D01*
X120000000Y-170000000D02*
X70000000Y-170000000D01*
X120000000Y-100000000D02*
X120000000Y-170000000D01*
D12*
X145250000Y-98530000D02*
X144750000Y-98530000D01*
X144750000Y-97470000D02*
X145250000Y-97470000D01*
X94750000Y-97470000D02*
X95250000Y-97470000D01*
X95250000Y-98530000D02*
X94750000Y-98530000D01*
D11*
X148928571Y-109642857D02*
X148214285Y-109880952D01*
X147976190Y-110119047D01*
X147738095Y-110595238D01*
X147738095Y-111309523D01*
X147976190Y-111785714D01*
X148214285Y-112023809D01*
X148690476Y-112261904D01*
X150595238Y-112261904D01*
X150595238Y-107261904D01*
X148928571Y-107261904D01*
X148452380Y-107500000D01*
X148214285Y-107738095D01*
X147976190Y-108214285D01*
X147976190Y-108690476D01*
X148214285Y-109166666D01*
X148452380Y-109404761D01*
X148928571Y-109642857D01*
X150595238Y-109642857D01*
X146309523Y-107261904D02*
X143452380Y-107261904D01*
X144880952Y-112261904D02*
X144880952Y-107261904D01*
X142261904Y-107261904D02*
X139166666Y-107261904D01*
X140833333Y-109166666D01*
X140119047Y-109166666D01*
X139642857Y-109404761D01*
X139404761Y-109642857D01*
X139166666Y-110119047D01*
X139166666Y-111309523D01*
X139404761Y-111785714D01*
X139642857Y-112023809D01*
X140119047Y-112261904D01*
X141547619Y-112261904D01*
X142023809Y-112023809D01*
X142261904Y-111785714D01*
X98928571Y-109642857D02*
X98214285Y-109880952D01*
X97976190Y-110119047D01*
X97738095Y-110595238D01*
X97738095Y-111309523D01*
X97976190Y-111785714D01*
X98214285Y-112023809D01*
X98690476Y-112261904D01*
X100595238Y-112261904D01*
X100595238Y-107261904D01*
X98928571Y-107261904D01*
X98452380Y-107500000D01*
X98214285Y-107738095D01*
X97976190Y-108214285D01*
X97976190Y-108690476D01*
X98214285Y-109166666D01*
X98452380Y-109404761D01*
X98928571Y-109642857D01*
X100595238Y-109642857D01*
X96309523Y-107261904D02*
X93452380Y-107261904D01*
X94880952Y-112261904D02*
X94880952Y-107261904D01*
X89642857Y-108928571D02*
X89642857Y-112261904D01*
X90833333Y-107023809D02*
X92023809Y-110595238D01*
X88928571Y-110595238D01*
D10*
X146285714Y-98802380D02*
X145714285Y-98802380D01*
X146000000Y-99802380D02*
X146000000Y-98802380D01*
X145380952Y-99802380D02*
X145380952Y-98802380D01*
X145380952Y-99278571D02*
X144809523Y-99278571D01*
X144809523Y-99802380D02*
X144809523Y-98802380D01*
X144428571Y-98802380D02*
X143809523Y-98802380D01*
X144142857Y-99183333D01*
X144000000Y-99183333D01*
X143904761Y-99230952D01*
X143857142Y-99278571D01*
X143809523Y-99373809D01*
X143809523Y-99611904D01*
X143857142Y-99707142D01*
X143904761Y-99754761D01*
X144000000Y-99802380D01*
X144285714Y-99802380D01*
X144380952Y-99754761D01*
X144428571Y-99707142D01*
X96285714Y-98802380D02*
X95714285Y-98802380D01*
X96000000Y-99802380D02*
X96000000Y-98802380D01*
X95380952Y-99802380D02*
X95380952Y-98802380D01*
X95380952Y-99278571D02*
X94809523Y-99278571D01*
X94809523Y-99802380D02*
X94809523Y-98802380D01*
X93904761Y-99135714D02*
X93904761Y-99802380D01*
X94142857Y-98754761D02*
X94380952Y-99469047D01*
X93761904Y-99469047D01*
M02*
